<svg xmlns="http://www.w3.org/2000/svg" xmlns:xlink="http://www.w3.org/1999/xlink" width="500" zoomAndPan="magnify" viewBox="0 0 375 374.999991" height="500" preserveAspectRatio="xMidYMid meet" version="1.0"><defs><g/></defs><rect x="-37.5" width="450" fill="#ffffff" y="-37.499999" height="449.999989" fill-opacity="1"/><rect x="-37.5" width="450" fill="#ffffff" y="-37.499999" height="449.999989" fill-opacity="1"/><g fill="#5a73d4" fill-opacity="1"><g transform="translate(84.142291, 201.859441)"><g><path d="M 5.390625 -27.6875 C 4.640625 -27.6875 4 -27.945312 3.46875 -28.46875 C 2.945312 -28.988281 2.6875 -29.625 2.6875 -30.375 C 2.6875 -31.125 2.945312 -31.757812 3.46875 -32.28125 C 4 -32.800781 4.640625 -33.0625 5.390625 -33.0625 C 6.109375 -33.0625 6.722656 -32.800781 7.234375 -32.28125 C 7.742188 -31.757812 8 -31.125 8 -30.375 C 8 -29.625 7.742188 -28.988281 7.234375 -28.46875 C 6.722656 -27.945312 6.109375 -27.6875 5.390625 -27.6875 Z M 7.296875 -23.8125 L 7.296875 0 L 3.34375 0 L 3.34375 -23.8125 Z M 7.296875 -23.8125 "/></g></g></g><g fill="#5a73d4" fill-opacity="1"><g transform="translate(94.829905, 201.859441)"><g><path d="M 14.953125 -24.25 C 17.847656 -24.25 20.191406 -23.367188 21.984375 -21.609375 C 23.785156 -19.859375 24.6875 -17.332031 24.6875 -14.03125 L 24.6875 0 L 20.765625 0 L 20.765625 -13.46875 C 20.765625 -15.84375 20.171875 -17.660156 18.984375 -18.921875 C 17.796875 -20.179688 16.175781 -20.8125 14.125 -20.8125 C 12.039062 -20.8125 10.378906 -20.160156 9.140625 -18.859375 C 7.910156 -17.554688 7.296875 -15.660156 7.296875 -13.171875 L 7.296875 0 L 3.34375 0 L 3.34375 -23.8125 L 7.296875 -23.8125 L 7.296875 -20.421875 C 8.078125 -21.640625 9.140625 -22.582031 10.484375 -23.25 C 11.835938 -23.914062 13.328125 -24.25 14.953125 -24.25 Z M 14.953125 -24.25 "/></g></g></g><g fill="#5a73d4" fill-opacity="1"><g transform="translate(122.638126, 201.859441)"><g><path d="M 24.640625 -30.5 L 24.640625 -24.546875 L 16.5625 -24.546875 L 16.5625 0 L 9.125 0 L 9.125 -24.546875 L 1.046875 -24.546875 L 1.046875 -30.5 Z M 24.640625 -30.5 "/></g></g></g><g fill="#5a73d4" fill-opacity="1"><g transform="translate(148.314468, 201.859441)"><g><path d="M 10.125 -20.203125 C 10.988281 -21.535156 12.070312 -22.582031 13.375 -23.34375 C 14.6875 -24.113281 16.140625 -24.5 17.734375 -24.5 L 17.734375 -16.640625 L 15.6875 -16.640625 C 13.832031 -16.640625 12.441406 -16.238281 11.515625 -15.4375 C 10.585938 -14.644531 10.125 -13.25 10.125 -11.25 L 10.125 0 L 2.6875 0 L 2.6875 -24.25 L 10.125 -24.25 Z M 10.125 -20.203125 "/></g></g></g><g fill="#5a73d4" fill-opacity="1"><g transform="translate(166.909179, 201.859441)"><g><path d="M 1.21875 -12.171875 C 1.21875 -14.660156 1.6875 -16.84375 2.625 -18.71875 C 3.570312 -20.601562 4.851562 -22.050781 6.46875 -23.0625 C 8.09375 -24.082031 9.90625 -24.59375 11.90625 -24.59375 C 13.613281 -24.59375 15.113281 -24.242188 16.40625 -23.546875 C 17.695312 -22.859375 18.6875 -21.945312 19.375 -20.8125 L 19.375 -24.25 L 26.8125 -24.25 L 26.8125 0 L 19.375 0 L 19.375 -3.4375 C 18.65625 -2.300781 17.648438 -1.382812 16.359375 -0.6875 C 15.066406 0 13.566406 0.34375 11.859375 0.34375 C 9.890625 0.34375 8.09375 -0.164062 6.46875 -1.1875 C 4.851562 -2.21875 3.570312 -3.679688 2.625 -5.578125 C 1.6875 -7.484375 1.21875 -9.679688 1.21875 -12.171875 Z M 19.375 -12.125 C 19.375 -13.976562 18.859375 -15.441406 17.828125 -16.515625 C 16.804688 -17.585938 15.554688 -18.125 14.078125 -18.125 C 12.597656 -18.125 11.34375 -17.59375 10.3125 -16.53125 C 9.289062 -15.476562 8.78125 -14.023438 8.78125 -12.171875 C 8.78125 -10.316406 9.289062 -8.84375 10.3125 -7.75 C 11.34375 -6.664062 12.597656 -6.125 14.078125 -6.125 C 15.554688 -6.125 16.804688 -6.660156 17.828125 -7.734375 C 18.859375 -8.804688 19.375 -10.269531 19.375 -12.125 Z M 19.375 -12.125 "/></g></g></g><g fill="#5a73d4" fill-opacity="1"><g transform="translate(196.40874, 201.859441)"><g><path d="M 6.4375 -26.765625 C 5.125 -26.765625 4.054688 -27.144531 3.234375 -27.90625 C 2.410156 -28.675781 2 -29.628906 2 -30.765625 C 2 -31.921875 2.410156 -32.882812 3.234375 -33.65625 C 4.054688 -34.425781 5.125 -34.8125 6.4375 -34.8125 C 7.707031 -34.8125 8.753906 -34.425781 9.578125 -33.65625 C 10.398438 -32.882812 10.8125 -31.921875 10.8125 -30.765625 C 10.8125 -29.628906 10.398438 -28.675781 9.578125 -27.90625 C 8.753906 -27.144531 7.707031 -26.765625 6.4375 -26.765625 Z M 10.125 -24.25 L 10.125 0 L 2.6875 0 L 2.6875 -24.25 Z M 10.125 -24.25 "/></g></g></g><g fill="#5a73d4" fill-opacity="1"><g transform="translate(209.225192, 201.859441)"><g><path d="M 17.46875 -24.5 C 20.3125 -24.5 22.578125 -23.578125 24.265625 -21.734375 C 25.960938 -19.898438 26.8125 -17.378906 26.8125 -14.171875 L 26.8125 0 L 19.421875 0 L 19.421875 -13.171875 C 19.421875 -14.785156 19 -16.039062 18.15625 -16.9375 C 17.320312 -17.84375 16.195312 -18.296875 14.78125 -18.296875 C 13.351562 -18.296875 12.21875 -17.84375 11.375 -16.9375 C 10.539062 -16.039062 10.125 -14.785156 10.125 -13.171875 L 10.125 0 L 2.6875 0 L 2.6875 -24.25 L 10.125 -24.25 L 10.125 -21.03125 C 10.875 -22.101562 11.882812 -22.945312 13.15625 -23.5625 C 14.4375 -24.1875 15.875 -24.5 17.46875 -24.5 Z M 17.46875 -24.5 "/></g></g></g><g fill="#5a73d4" fill-opacity="1"><g transform="translate(238.507517, 201.859441)"><g><path d="M 6.171875 0.34375 C 4.867188 0.34375 3.800781 -0.0351562 2.96875 -0.796875 C 2.144531 -1.566406 1.734375 -2.519531 1.734375 -3.65625 C 1.734375 -4.8125 2.144531 -5.78125 2.96875 -6.5625 C 3.800781 -7.34375 4.867188 -7.734375 6.171875 -7.734375 C 7.441406 -7.734375 8.488281 -7.34375 9.3125 -6.5625 C 10.144531 -5.78125 10.5625 -4.8125 10.5625 -3.65625 C 10.5625 -2.519531 10.144531 -1.566406 9.3125 -0.796875 C 8.488281 -0.0351562 7.441406 0.34375 6.171875 0.34375 Z M 6.171875 0.34375 "/></g></g></g><g fill="#5a73d4" fill-opacity="1"><g transform="translate(250.771738, 201.859441)"><g><path d="M 1.875 -12 C 1.875 -14.425781 2.363281 -16.554688 3.34375 -18.390625 C 4.332031 -20.234375 5.6875 -21.660156 7.40625 -22.671875 C 9.132812 -23.691406 11.054688 -24.203125 13.171875 -24.203125 C 15.253906 -24.203125 17.0625 -23.753906 18.59375 -22.859375 C 20.132812 -21.960938 21.28125 -20.832031 22.03125 -19.46875 L 22.03125 -23.8125 L 26.03125 -23.8125 L 26.03125 0 L 22.03125 0 L 22.03125 -4.4375 C 21.25 -3.039062 20.082031 -1.882812 18.53125 -0.96875 C 16.976562 -0.0625 15.175781 0.390625 13.125 0.390625 C 11.007812 0.390625 9.097656 -0.128906 7.390625 -1.171875 C 5.679688 -2.210938 4.332031 -3.675781 3.34375 -5.5625 C 2.363281 -7.445312 1.875 -9.59375 1.875 -12 Z M 22.03125 -11.953125 C 22.03125 -13.742188 21.664062 -15.304688 20.9375 -16.640625 C 20.21875 -17.972656 19.242188 -18.992188 18.015625 -19.703125 C 16.785156 -20.410156 15.429688 -20.765625 13.953125 -20.765625 C 12.472656 -20.765625 11.125 -20.414062 9.90625 -19.71875 C 8.6875 -19.03125 7.710938 -18.019531 6.984375 -16.6875 C 6.265625 -15.351562 5.90625 -13.789062 5.90625 -12 C 5.90625 -10.164062 6.265625 -8.578125 6.984375 -7.234375 C 7.710938 -5.890625 8.6875 -4.859375 9.90625 -4.140625 C 11.125 -3.429688 12.472656 -3.078125 13.953125 -3.078125 C 15.429688 -3.078125 16.785156 -3.429688 18.015625 -4.140625 C 19.242188 -4.859375 20.21875 -5.890625 20.9375 -7.234375 C 21.664062 -8.578125 22.03125 -10.148438 22.03125 -11.953125 Z M 22.03125 -11.953125 "/></g></g></g><g fill="#5a73d4" fill-opacity="1"><g transform="translate(280.140963, 201.859441)"><g><path d="M 5.390625 -27.6875 C 4.640625 -27.6875 4 -27.945312 3.46875 -28.46875 C 2.945312 -28.988281 2.6875 -29.625 2.6875 -30.375 C 2.6875 -31.125 2.945312 -31.757812 3.46875 -32.28125 C 4 -32.800781 4.640625 -33.0625 5.390625 -33.0625 C 6.109375 -33.0625 6.722656 -32.800781 7.234375 -32.28125 C 7.742188 -31.757812 8 -31.125 8 -30.375 C 8 -29.625 7.742188 -28.988281 7.234375 -28.46875 C 6.722656 -27.945312 6.109375 -27.6875 5.390625 -27.6875 Z M 7.296875 -23.8125 L 7.296875 0 L 3.34375 0 L 3.34375 -23.8125 Z M 7.296875 -23.8125 "/></g></g></g></svg>